<svg width="94" height="108" viewBox="0 0 94 108" fill="none" xmlns="http://www.w3.org/2000/svg">
<path fill-rule="evenodd" clip-rule="evenodd" d="M59.8176 21.6021C58.0459 21.6021 56.6116 20.1988 56.6116 18.4652C56.6116 16.7317 58.0459 15.3347 59.8176 15.3347C61.5894 15.3347 63.0236 16.7317 63.0236 18.4652C63.0236 20.1988 61.5894 21.6021 59.8176 21.6021ZM34.1824 21.6021C32.4106 21.6021 30.9764 20.1988 30.9764 18.4652C30.9764 16.7317 32.4106 15.3347 34.1824 15.3347C35.9541 15.3347 37.3884 16.7317 37.3884 18.4652C37.3884 20.1988 35.9541 21.6021 34.1824 21.6021ZM61.7126 9.04171C70.7726 13.1755 76.9056 21.0051 76.9056 29.9649H17.0944C17.0944 21.0051 23.2274 13.1755 32.2939 9.04171L31.0932 7.27648L29.8991 5.53652L27.2382 1.62484C26.9137 1.14224 27.05 0.494616 27.5367 0.177119C28.03 -0.140379 28.6919 -0.0132248 29.0229 0.469355L31.8785 4.66036L33.0791 6.41928L34.2928 8.20977C38.1543 6.74293 42.4635 5.92379 47 5.92379C51.5429 5.92379 55.8457 6.74293 59.7072 8.20977L60.9274 6.41928L64.9901 0.469355C65.3081 -0.0132248 65.9765 -0.146724 66.4633 0.177119C66.9565 0.494616 67.0928 1.14224 66.7618 1.62484L64.1009 5.53652L62.9068 7.27648L61.7126 9.04171ZM17.5553 34.1433H76.9056V80.1298C76.9056 83.7811 73.8813 86.753 70.1431 86.753H65.2562C65.4249 87.3054 65.5222 87.8833 65.5222 88.4929V101.733C65.5222 105.193 62.6472 108 59.1037 108C55.5667 108 52.6982 105.193 52.6982 101.733V88.4929C52.6982 87.8833 52.789 87.3054 52.9512 86.753H41.0488C41.211 87.3054 41.3083 87.8833 41.3083 88.4929V101.733C41.3083 105.193 38.4333 108 34.8963 108C31.3593 108 28.4843 105.193 28.4843 101.733V88.4929C28.4843 87.8833 28.5751 87.3054 28.7438 86.753H23.8634C20.1252 86.753 17.0944 83.7811 17.0944 80.1298V34.1433H17.5553ZM6.41205 34.1433C9.94906 34.1433 12.8176 36.95 12.8176 40.4107V67.2393C12.8176 70.7001 9.94906 73.5067 6.41205 73.5067C2.86856 73.5067 0 70.7001 0 67.2393V40.4107C0 36.95 2.86856 34.1433 6.41205 34.1433ZM87.5944 34.1433C91.1314 34.1433 94 36.95 94 40.4107V67.2393C94 70.7001 91.1314 73.5067 87.5944 73.5067C84.0509 73.5067 81.1824 70.7001 81.1824 67.2393V40.4107C81.1824 36.95 84.0509 34.1433 87.5944 34.1433Z" fill="white"/>
</svg>
