<svg width="522" height="522" viewBox="0 0 522 522" fill="none" xmlns="http://www.w3.org/2000/svg">
<path opacity="0.43" d="M424.893 385.215H102.334L222.901 124.275H304.326L424.893 385.215Z" fill="url(#paint0_linear)"/>
<path d="M95.2992 314.335C95.1572 314.335 95.0131 314.32 94.8685 314.29C93.7399 314.053 93.017 312.946 93.254 311.818L97.3423 292.333C97.5098 291.534 98.1279 290.906 98.9239 290.726L120.414 285.854C121.539 285.6 122.657 286.304 122.911 287.429C123.167 288.554 122.461 289.672 121.337 289.927L101.153 294.503L97.3402 312.675C97.134 313.659 96.2659 314.335 95.2992 314.335Z" fill="#283035"/>
<path d="M162.185 246.515H338.505C343.439 246.515 347.438 250.515 347.438 255.448V371.795H153.254V255.448C153.255 250.515 157.253 246.516 162.185 246.515Z" fill="#D2DCE6"/>
<path d="M347.438 373.362H153.254C152.39 373.362 151.688 372.661 151.688 371.796V255.448C151.689 249.66 156.398 244.951 162.185 244.949H338.506C344.294 244.949 349.004 249.659 349.004 255.448V371.796C349.005 372.661 348.303 373.362 347.438 373.362ZM154.82 370.23H345.872V255.448C345.872 251.386 342.568 248.081 338.506 248.081H162.185C158.125 248.082 154.82 251.387 154.82 255.448V370.23H154.82Z" fill="#283035"/>
<path d="M332.823 261.279H167.871V357.327H332.823V261.279Z" fill="#FF5C5C"/>
<g opacity="0.3">
<path opacity="0.3" d="M290.757 343.57H263.613C262.748 343.57 262.047 342.869 262.047 342.004C262.047 341.139 262.748 340.438 263.613 340.438H290.757C291.622 340.438 292.323 341.139 292.323 342.004C292.323 342.869 291.622 343.57 290.757 343.57Z" fill="white"/>
</g>
<g opacity="0.3">
<path opacity="0.3" d="M329.789 312.147C330.864 312.079 331.846 312.758 332.162 313.788V307.808C331.589 307.641 330.995 307.554 330.398 307.552H329.789C328.476 307.552 327.819 308.208 327.819 309.521V310.224C327.819 311.491 328.476 312.147 329.789 312.147Z" fill="white"/>
<path opacity="0.3" d="M332.162 340.81C331.84 341.834 330.861 342.506 329.789 342.438C328.476 342.438 327.819 343.095 327.819 344.407V345.111C327.819 346.424 328.476 347.08 329.789 347.081H330.398C330.995 347.078 331.589 346.991 332.162 346.824V340.81Z" fill="white"/>
</g>
<path d="M332.823 358.893H167.871C167.006 358.893 166.305 358.192 166.305 357.327V261.279C166.305 260.414 167.006 259.713 167.871 259.713H332.823C333.688 259.713 334.389 260.414 334.389 261.279V357.327C334.389 358.192 333.688 358.893 332.823 358.893ZM169.437 355.761H331.257V262.845H169.437V355.761Z" fill="#283035"/>
<path d="M131.827 371.872H368.867C370.021 371.872 370.955 372.807 370.955 373.96V376.461C370.955 382.227 366.281 386.901 360.515 386.901H140.179C134.413 386.901 129.739 382.227 129.739 376.461V373.96C129.739 372.807 130.674 371.872 131.827 371.872Z" fill="#E5E5E5"/>
<path d="M360.513 382.201H140.177C135.003 382.197 130.613 378.401 129.862 373.281C129.783 373.499 129.742 373.729 129.739 373.96V376.461C129.739 382.227 134.413 386.901 140.179 386.901H360.515C366.281 386.901 370.955 382.227 370.955 376.461V373.96C370.953 373.729 370.912 373.499 370.833 373.281C370.082 378.403 365.689 382.199 360.513 382.201Z" fill="#CFD1D0"/>
<path d="M360.516 388.467H140.179C133.559 388.467 128.173 383.081 128.173 376.461V373.96C128.173 371.946 129.812 370.306 131.827 370.306H368.868C370.882 370.306 372.522 371.946 372.522 373.96V376.461C372.522 383.081 367.136 388.467 360.516 388.467ZM131.827 373.438C131.54 373.438 131.305 373.672 131.305 373.96V376.461C131.305 381.354 135.286 385.335 140.179 385.335H360.516C365.409 385.335 369.39 381.354 369.39 376.461V373.96C369.39 373.672 369.156 373.438 368.868 373.438H131.827Z" fill="#283035"/>
<path d="M228.422 371.795H272.27C272.27 374.101 270.401 375.971 268.094 375.971H232.598C230.292 375.971 228.422 374.101 228.422 371.795Z" fill="#686B6D"/>
<path d="M268.094 377.016H232.598C229.72 377.016 227.378 374.674 227.378 371.796C227.378 371.219 227.846 370.752 228.422 370.752H272.27C272.847 370.752 273.314 371.219 273.314 371.796C273.314 374.674 270.972 377.016 268.094 377.016ZM229.645 372.84C230.076 374.055 231.238 374.928 232.598 374.928H268.094C269.455 374.928 270.617 374.055 271.047 372.84H229.645Z" fill="#283035"/>
<path d="M249.935 257.877C252.242 257.877 254.111 256.007 254.111 253.701C254.111 251.395 252.242 249.525 249.935 249.525C247.629 249.525 245.759 251.395 245.759 253.701C245.759 256.007 247.629 257.877 249.935 257.877Z" fill="#686B6D"/>
<path d="M249.935 258.921C247.057 258.921 244.715 256.579 244.715 253.701C244.715 250.823 247.057 248.481 249.935 248.481C252.814 248.481 255.155 250.823 255.155 253.701C255.155 256.579 252.814 258.921 249.935 258.921ZM249.935 250.569C248.208 250.569 246.803 251.974 246.803 253.701C246.803 255.428 248.208 256.833 249.935 256.833C251.663 256.833 253.067 255.428 253.067 253.701C253.067 251.974 251.663 250.569 249.935 250.569Z" fill="#283035"/>
<path d="M80.1035 386.899H105.734C107.573 386.899 109.126 385.532 109.358 383.707L116.204 329.993H69.6348L76.4813 383.707C76.7136 385.531 78.265 386.898 80.1035 386.899Z" fill="#EAD57D"/>
<path d="M76.759 329.994L82.191 379.602C82.4222 381.715 84.2074 383.315 86.333 383.315H109.411L109.362 383.707C109.129 385.532 107.576 386.899 105.737 386.899H80.1066C78.2671 386.899 76.7147 385.531 76.4824 383.707L69.6348 329.994H76.759Z" fill="#E5C66E"/>
<path d="M105.733 388.465H80.1031C80.1026 388.465 80.1026 388.465 80.1021 388.465C77.4832 388.463 75.259 386.502 74.9275 383.905L68.0809 330.191C68.024 329.745 68.1619 329.296 68.4594 328.958C68.7564 328.621 69.185 328.427 69.6344 328.427H116.204C116.654 328.427 117.082 328.62 117.379 328.958C117.676 329.296 117.814 329.745 117.758 330.191L110.912 383.905C110.581 386.504 108.354 388.465 105.733 388.465ZM80.1047 385.333H105.734C106.782 385.333 107.673 384.549 107.805 383.509L114.426 331.559H71.4134L78.0355 383.509C78.167 384.548 79.057 385.332 80.1047 385.333Z" fill="#283035"/>
<path d="M114.448 371.436L117.759 345.457H68.0791L71.3901 371.436H114.448Z" fill="#5CBF84"/>
<path d="M114.448 371.436L117.759 345.457H68.0791L71.3901 371.436H114.448Z" fill="#4FB277"/>
<path d="M114.243 368.434L117.019 345.457H75.3594L77.9172 366.611C78.043 367.651 78.9262 368.434 79.9744 368.434H114.243Z" fill="#5CBF84"/>
<path d="M114.448 373.002H71.3903C70.6021 373.002 69.9365 372.415 69.8368 371.633L66.5258 345.655C66.4689 345.209 66.6067 344.759 66.9042 344.422C67.2012 344.084 67.6298 343.891 68.0792 343.891H117.76C118.21 343.891 118.638 344.084 118.935 344.422C119.232 344.759 119.369 345.209 119.313 345.655L116.002 371.633C115.902 372.415 115.237 373.002 114.448 373.002ZM72.7694 369.87H113.069L115.981 347.023H69.8577L72.7694 369.87Z" fill="#283035"/>
<path d="M119.196 329.993H66.6424C63.4712 329.993 60.9004 327.423 60.9004 324.252C60.9004 321.08 63.4712 318.51 66.6424 318.51H119.196C122.367 318.51 124.938 321.08 124.938 324.252C124.938 327.423 122.367 329.993 119.196 329.993Z" fill="#5CBF84"/>
<path d="M119.196 329.993H66.6424C63.4712 329.993 60.9004 327.423 60.9004 324.252C60.9004 321.08 63.4712 318.51 66.6424 318.51H119.196C122.367 318.51 124.938 321.08 124.938 324.252C124.938 327.423 122.367 329.993 119.196 329.993Z" fill="#4FB277"/>
<path d="M120.436 327.514H72.5809C70.0946 327.514 68.0786 325.498 68.0786 323.012C68.0786 320.525 70.0946 318.51 72.5809 318.51H120.436C122.922 318.51 124.938 320.525 124.938 323.012C124.938 325.498 122.922 327.514 120.436 327.514Z" fill="#5CBF84"/>
<path d="M119.196 331.56H66.6425C62.6126 331.56 59.3345 328.281 59.3345 324.252C59.3345 320.222 62.6126 316.944 66.6425 316.944H119.196C123.226 316.944 126.504 320.222 126.504 324.252C126.504 328.281 123.226 331.56 119.196 331.56ZM66.6425 320.076C64.3399 320.076 62.4665 321.949 62.4665 324.252C62.4665 326.554 64.3399 328.428 66.6425 328.428H119.196C121.499 328.428 123.372 326.554 123.372 324.252C123.372 321.949 121.499 320.076 119.196 320.076H66.6425Z" fill="#283035"/>
<path d="M72.0391 318.51H113.799L112.973 312.246H72.8659L72.0391 318.51Z" fill="#5CBF84"/>
<path d="M72.8659 312.246H85.1183L82.2181 318.51H72.0391L72.8659 312.246Z" fill="#54AF79"/>
<path d="M113.799 320.076H72.0387C71.5877 320.076 71.1587 319.881 70.8611 319.543C70.5636 319.204 70.4268 318.752 70.4863 318.305L71.3132 312.041C71.416 311.263 72.08 310.681 72.8656 310.681H112.972C113.758 310.681 114.422 311.263 114.525 312.041L115.351 318.305C115.41 318.752 115.273 319.204 114.976 319.543C114.679 319.882 114.25 320.076 113.799 320.076ZM73.825 316.944H112.012L111.599 313.812H74.2385L73.825 316.944Z" fill="#283035"/>
<path d="M376.432 386.951C376.481 378.593 383.295 371.858 391.653 371.907C399.941 371.955 406.648 378.662 406.697 386.951H376.432Z" fill="#E5E5E5"/>
<path d="M391.565 382.17C395.943 382.212 400.126 380.359 403.036 377.088C397.596 370.753 388.05 370.027 381.714 375.467C381.133 375.966 380.591 376.508 380.093 377.088C383.003 380.359 387.186 382.212 391.565 382.17Z" fill="#CFD1D0"/>
<path d="M406.697 388.517H376.432C376.015 388.517 375.615 388.351 375.321 388.055C375.028 387.759 374.863 387.358 374.866 386.941C374.92 377.767 382.401 370.34 391.562 370.34C391.595 370.34 391.629 370.34 391.662 370.34C400.762 370.394 408.209 377.841 408.263 386.941C408.265 387.358 408.101 387.759 407.808 388.055C407.514 388.35 407.114 388.517 406.697 388.517ZM378.097 385.385H405.03C404.209 378.725 398.505 373.513 391.643 373.473C384.713 373.434 378.921 378.648 378.097 385.385Z" fill="#283035"/>
<path opacity="0.14" d="M195.758 279.886H275.093C277.402 279.886 279.274 281.757 279.274 284.066V345.654C279.274 347.962 277.402 349.834 275.093 349.834H195.758C193.449 349.834 191.578 347.962 191.578 345.654V284.066C191.578 281.757 193.449 279.886 195.758 279.886Z" fill="black"/>
<path d="M191.669 276.232H271.005C273.313 276.232 275.185 278.103 275.185 280.412V342C275.185 344.308 273.313 346.18 271.005 346.18H191.669C189.36 346.18 187.489 344.308 187.489 342V280.412C187.489 278.103 189.36 276.232 191.669 276.232Z" fill="#353F49"/>
<path d="M271.005 347.224H191.669C188.788 347.224 186.445 344.88 186.445 342V280.412C186.445 277.531 188.789 275.188 191.669 275.188H271.005C273.886 275.188 276.229 277.531 276.229 280.412V342C276.229 344.88 273.886 347.224 271.005 347.224ZM191.669 277.276C189.94 277.276 188.533 278.682 188.533 280.412V342C188.533 343.728 189.94 345.136 191.669 345.136H271.005C272.734 345.136 274.141 343.729 274.141 342V280.412C274.141 278.683 272.734 277.276 271.005 277.276H191.669Z" fill="#283035"/>
<path d="M191.668 276.232H271.005C273.313 276.232 275.185 278.103 275.185 280.412V286.672H187.489V280.412C187.489 278.104 189.36 276.232 191.668 276.232Z" fill="#EAEEEF"/>
<path d="M275.185 287.716H187.489C186.913 287.716 186.445 287.248 186.445 286.672V280.412C186.445 277.531 188.788 275.188 191.668 275.188H271.005C273.886 275.188 276.229 277.531 276.229 280.412V286.672C276.229 287.248 275.761 287.716 275.185 287.716ZM188.533 285.628H274.141V280.412C274.141 278.683 272.734 277.276 271.005 277.276H191.668C189.94 277.276 188.533 278.682 188.533 280.412V285.628Z" fill="#283035"/>
<path opacity="0.35" d="M194.971 283.083C195.872 283.083 196.602 282.353 196.602 281.452C196.602 280.551 195.872 279.82 194.971 279.82C194.07 279.82 193.339 280.551 193.339 281.452C193.339 282.353 194.07 283.083 194.971 283.083Z" fill="#283035"/>
<path opacity="0.35" d="M200.103 283.083C201.004 283.083 201.735 282.353 201.735 281.452C201.735 280.551 201.004 279.82 200.103 279.82C199.203 279.82 198.472 280.551 198.472 281.452C198.472 282.353 199.203 283.083 200.103 283.083Z" fill="#283035"/>
<path opacity="0.35" d="M204.976 283.083C205.877 283.083 206.607 282.353 206.607 281.452C206.607 280.551 205.877 279.82 204.976 279.82C204.075 279.82 203.345 280.551 203.345 281.452C203.345 282.353 204.075 283.083 204.976 283.083Z" fill="#283035"/>
<path d="M197.32 289.543H191.578V291.109H197.32V289.543Z" fill="#46BB86"/>
<path d="M215.068 289.543H199.408V291.109H215.068V289.543Z" fill="#46BB86"/>
<path d="M215.068 293.719H191.578V295.285H215.068V293.719Z" fill="#389ABE"/>
<path d="M207.759 297.895H196.275V299.461H207.759V297.895Z" fill="#E5C689"/>
<path d="M222.376 297.895H209.848V299.461H222.376V297.895Z" fill="#F2F3F4"/>
<path d="M226.552 302.071H202.54V303.637H226.552V302.071Z" fill="#F2F3F4"/>
<path d="M220.288 306.247H202.54V307.813H220.288V306.247Z" fill="#FFA49F"/>
<path d="M222.375 310.423H196.275V311.989H222.375V310.423Z" fill="#F2F3F4"/>
<path d="M205.672 314.077H191.578V315.643H205.672V314.077Z" fill="#389ABE"/>
<g opacity="0.3">
<path opacity="0.3" d="M313.014 335.083C313.014 333.02 312.216 331.566 310.622 330.675C309.497 330.066 309.028 329.596 309.028 328.518V326.691C309.028 325.426 309.591 325.144 310.575 324.487C312.216 323.784 313.014 322.284 313.014 320.033V316.047C313.014 312.859 314.186 310.514 315.874 309.53C317.137 308.629 318.637 308.123 320.188 308.076H320.797C322.11 308.076 322.766 308.732 322.767 310.045V310.746C322.767 312.012 322.11 312.668 320.797 312.668C318.97 312.668 318.078 313.981 318.078 316.654V321.577C318.173 324.018 316.835 326.29 314.655 327.392L314.233 327.532V327.626C314.714 327.768 315.161 328.008 315.545 328.33C316.718 329.033 318.078 330.674 318.078 333.534V339.02C318.078 341.646 318.969 342.96 320.797 342.96C322.11 342.96 322.766 343.616 322.767 344.928V345.632C322.767 346.945 322.11 347.601 320.797 347.602H320.188C318.638 347.554 317.137 347.048 315.874 346.148C314.186 345.163 313.014 342.772 313.014 339.63V335.083Z" fill="white"/>
</g>
<path d="M92.7878 364.923C87.8607 364.923 82.933 363.364 78.8363 360.246L78.283 360.784C77.9734 361.085 77.4775 361.079 77.1758 360.769C76.8741 360.459 76.8814 359.963 77.191 359.661L78.235 358.646C78.5195 358.369 78.9652 358.349 79.2737 358.599C87.1043 364.946 98.4708 364.946 106.3 358.599C106.609 358.348 107.057 358.369 107.341 358.648L108.646 359.923C108.955 360.225 108.961 360.721 108.658 361.03C108.356 361.339 107.86 361.345 107.551 361.042L106.737 360.247C102.642 363.364 97.7145 364.923 92.7878 364.923Z" fill="#283035"/>
<path d="M85.1184 357.789C84.6857 357.789 84.3354 357.438 84.3354 357.006V354.959C84.3354 353.295 85.689 351.942 87.3531 351.942C89.0173 351.942 90.3708 353.296 90.3708 354.959C90.3708 355.391 90.0205 355.742 89.5878 355.742C89.1551 355.742 88.8048 355.391 88.8048 354.959C88.8048 354.159 88.1534 353.508 87.3531 353.508C86.5529 353.508 85.9014 354.159 85.9014 354.959V357.006C85.9014 357.439 85.5512 357.789 85.1184 357.789Z" fill="#283035"/>
<path d="M100.72 357.789C100.287 357.789 99.9367 357.438 99.9367 357.006V354.959C99.9367 354.159 99.2852 353.508 98.485 353.508C97.6847 353.508 97.0333 354.159 97.0333 354.959C97.0333 355.391 96.683 355.742 96.2503 355.742C95.8175 355.742 95.4673 355.391 95.4673 354.959C95.4673 353.295 96.8208 351.942 98.485 351.942C100.149 351.942 101.503 353.296 101.503 354.959V357.006C101.503 357.439 101.152 357.789 100.72 357.789Z" fill="#283035"/>
<path d="M419.083 319.09H459.694C462.318 319.09 464.444 321.217 464.444 323.841V382.2C464.444 384.824 462.318 386.95 459.694 386.95H419.083C416.459 386.95 414.333 384.824 414.333 382.2V323.841C414.333 321.217 416.459 319.09 419.083 319.09Z" fill="#E5E5E5"/>
<path d="M459.694 319.09H459.092C459.179 319.45 459.224 319.818 459.225 320.187V378.546C459.225 381.17 457.098 383.296 454.474 383.296H414.468C414.975 385.437 416.886 386.949 419.086 386.95H459.697C462.321 386.95 464.448 384.824 464.448 382.2V323.841C464.448 321.217 462.321 319.09 459.697 319.09C459.696 319.09 459.695 319.09 459.694 319.09Z" fill="#CFD1D0"/>
<path d="M459.694 388.516H419.083C415.6 388.516 412.767 385.683 412.767 382.2V323.841C412.767 320.358 415.6 317.524 419.083 317.524H459.694C463.177 317.524 466.011 320.358 466.011 323.841V382.2C466.011 385.683 463.177 388.516 459.694 388.516ZM419.083 320.656C417.327 320.656 415.899 322.085 415.899 323.841V382.201C415.899 383.956 417.327 385.385 419.083 385.385H459.694C461.45 385.385 462.879 383.957 462.879 382.201V323.841C462.879 322.085 461.451 320.656 459.694 320.656H419.083Z" fill="#283035"/>
<path d="M447.74 315.153H443.564V313.587C443.564 311.28 441.695 309.411 439.388 309.411C437.082 309.411 435.212 311.28 435.212 313.587V315.153H431.036C428.73 315.153 426.86 317.022 426.86 319.329C426.86 321.635 428.73 323.505 431.036 323.505H447.74C450.047 323.505 451.916 321.635 451.916 319.329C451.916 317.022 450.047 315.153 447.74 315.153Z" fill="#F7B66F"/>
<path d="M449.681 315.633C450.288 317.85 448.983 320.14 446.765 320.747C446.403 320.846 446.028 320.896 445.653 320.895H428.949C428.273 320.895 427.607 320.73 427.008 320.415C427.499 322.237 429.15 323.503 431.037 323.505H447.741C450.047 323.502 451.915 321.631 451.912 319.324C451.911 317.775 451.052 316.354 449.681 315.633Z" fill="#EDA762"/>
<path d="M441.477 310.977V312.543H443.428C443.134 311.402 442.372 310.439 441.329 309.891C441.426 310.245 441.476 310.61 441.477 310.977Z" fill="#EDA762"/>
<path d="M447.74 325.07H431.036C427.871 325.07 425.294 322.494 425.294 319.328C425.294 316.163 427.871 313.586 431.036 313.586H433.646C433.646 310.421 436.223 307.844 439.388 307.844C442.554 307.844 445.13 310.421 445.13 313.586H447.74C450.906 313.586 453.482 316.163 453.482 319.328C453.482 322.494 450.907 325.07 447.74 325.07ZM431.036 316.718C429.597 316.718 428.426 317.889 428.426 319.328C428.426 320.768 429.597 321.938 431.036 321.938H447.74C449.18 321.938 450.35 320.768 450.35 319.328C450.35 317.889 449.18 316.718 447.74 316.718H443.564C442.699 316.718 441.998 316.017 441.998 315.152V313.586C441.998 312.147 440.828 310.976 439.388 310.976C437.949 310.976 436.778 312.147 436.778 313.586V315.152C436.778 316.017 436.077 316.718 435.212 316.718H431.036Z" fill="#283035"/>
<path d="M439.388 338.643C441.791 338.643 443.738 336.695 443.738 334.293C443.738 331.89 441.791 329.943 439.388 329.943C436.986 329.943 435.039 331.89 435.039 334.293C435.039 336.695 436.986 338.643 439.388 338.643Z" fill="#8EAFBF"/>
<path d="M439.388 340.208C436.127 340.208 433.473 337.555 433.473 334.293C433.473 331.031 436.127 328.377 439.388 328.377C442.65 328.377 445.304 331.031 445.304 334.293C445.304 337.555 442.65 340.208 439.388 340.208ZM439.388 331.509C437.854 331.509 436.605 332.758 436.605 334.293C436.605 335.827 437.854 337.077 439.388 337.077C440.923 337.077 442.172 335.827 442.172 334.293C442.172 332.758 440.924 331.509 439.388 331.509Z" fill="#283035"/>
<path d="M433.241 349.257H422.801C421.936 349.257 421.235 348.556 421.235 347.691C421.235 346.826 421.936 346.125 422.801 346.125H433.241C434.106 346.125 434.807 346.826 434.807 347.691C434.807 348.556 434.106 349.257 433.241 349.257Z" fill="#283035"/>
<path d="M433.241 363.437H422.801C421.936 363.437 421.235 362.736 421.235 361.871C421.235 361.007 421.936 360.305 422.801 360.305H433.241C434.106 360.305 434.807 361.007 434.807 361.871C434.807 362.736 434.106 363.437 433.241 363.437Z" fill="#283035"/>
<path d="M433.241 377.619H422.801C421.936 377.619 421.235 376.918 421.235 376.053C421.235 375.188 421.936 374.487 422.801 374.487H433.241C434.106 374.487 434.807 375.188 434.807 376.053C434.807 376.918 434.106 377.619 433.241 377.619Z" fill="#283035"/>
<path d="M442.862 351.796C442.545 351.796 442.232 351.653 442.026 351.38L439.304 347.76C438.958 347.299 439.051 346.644 439.511 346.298C439.973 345.952 440.627 346.045 440.973 346.504L443.067 349.29L450.379 343.794C450.841 343.448 451.495 343.542 451.841 344.001C452.187 344.462 452.094 345.116 451.634 345.463L443.489 351.586C443.3 351.728 443.08 351.796 442.862 351.796Z" fill="#8BAFC1"/>
<path d="M442.861 365.978C442.812 365.978 442.763 365.974 442.715 365.967C442.441 365.929 442.193 365.782 442.027 365.561L439.305 361.94C438.958 361.479 439.051 360.824 439.512 360.478C439.974 360.132 440.628 360.225 440.974 360.685L443.068 363.471L450.379 357.975C450.841 357.629 451.495 357.722 451.841 358.182C452.188 358.642 452.095 359.297 451.634 359.644L443.489 365.767C443.306 365.905 443.085 365.978 442.861 365.978Z" fill="#8BAFC1"/>
<path d="M469.626 348.164L464.456 348.883L469.06 381.974L474.23 381.255L469.626 348.164Z" fill="#3BBC88"/>
<path d="M469.049 382.991C468.823 382.991 468.602 382.917 468.419 382.78C468.199 382.613 468.053 382.365 468.015 382.091L463.411 349.001C463.373 348.727 463.445 348.449 463.612 348.228C463.779 348.007 464.027 347.862 464.301 347.824L469.471 347.105C470.037 347.021 470.569 347.423 470.649 347.995L475.253 381.084C475.332 381.655 474.934 382.182 474.363 382.261L469.193 382.981C469.144 382.987 469.096 382.991 469.049 382.991ZM465.623 349.747L469.939 380.768L473.041 380.337L468.724 349.316L465.623 349.747Z" fill="#283035"/>
<path d="M474.22 381.226L469.049 381.946L472.354 386.756L474.22 381.226Z" fill="#E5E5E5"/>
<path d="M472.354 387.8C472.013 387.8 471.69 387.633 471.494 387.347L468.189 382.537C467.984 382.239 467.949 381.855 468.094 381.525C468.241 381.193 468.548 380.962 468.906 380.912L474.076 380.193C474.434 380.14 474.793 380.282 475.023 380.561C475.254 380.839 475.324 381.217 475.209 381.56L473.343 387.09C473.217 387.465 472.89 387.736 472.498 387.79C472.45 387.797 472.401 387.8 472.354 387.8ZM470.866 382.747L472.032 384.443L472.69 382.493L470.866 382.747Z" fill="#283035"/>
<path d="M467.706 342.855L464.606 343.287L465.327 348.455L468.427 348.023L467.706 342.855Z" fill="#E5E5E5"/>
<path d="M465.324 349.525C465.098 349.525 464.878 349.451 464.695 349.314C464.474 349.147 464.329 348.899 464.29 348.626L463.57 343.459C463.491 342.887 463.889 342.36 464.46 342.28L467.56 341.848C468.132 341.772 468.658 342.167 468.737 342.738L469.458 347.905C469.497 348.179 469.425 348.457 469.258 348.678C469.091 348.899 468.843 349.044 468.569 349.083L465.469 349.515C465.42 349.522 465.372 349.525 465.324 349.525ZM465.781 344.203L466.214 347.304L467.247 347.16L466.814 344.059L465.781 344.203Z" fill="#283035"/>
<path d="M474.29 362.238C473.937 362.238 473.593 362.06 473.397 361.736C472.748 360.668 472.292 359.505 472.041 358.28C471.708 356.642 471.957 355.37 472.156 354.347C472.337 353.42 472.421 352.915 472.199 352.449C472.165 352.375 472.131 352.3 472.097 352.221C471.894 351.759 471.735 351.394 470.231 351.177C469.661 351.094 469.264 350.565 469.347 349.994C469.43 349.423 469.958 349.031 470.53 349.11C472.977 349.464 473.61 350.469 474.01 351.383C474.035 351.44 474.059 351.496 474.085 351.548C474.614 352.659 474.407 353.72 474.206 354.747C474.025 355.674 473.838 356.633 474.088 357.862C474.29 358.85 474.658 359.789 475.182 360.652C475.481 361.145 475.324 361.787 474.832 362.087C474.661 362.189 474.474 362.238 474.29 362.238Z" fill="#283035"/>
<path d="M494.073 388.517H480.631C479.766 388.517 479.065 387.815 479.065 386.951C479.065 386.086 479.766 385.385 480.631 385.385H494.073C494.938 385.385 495.639 386.086 495.639 386.951C495.639 387.815 494.938 388.517 494.073 388.517Z" fill="#283035"/>
<path d="M474.759 388.517H122.322C121.457 388.517 120.756 387.815 120.756 386.951C120.756 386.086 121.457 385.385 122.322 385.385H474.759C475.624 385.385 476.325 386.086 476.325 386.951C476.325 387.815 475.624 388.517 474.759 388.517Z" fill="#283035"/>
<path d="M116.206 388.517H59.8995C59.0345 388.517 58.3335 387.815 58.3335 386.951C58.3335 386.086 59.0345 385.385 59.8995 385.385H116.206C117.07 385.385 117.772 386.086 117.772 386.951C117.772 387.815 117.07 388.517 116.206 388.517Z" fill="#283035"/>
<path d="M54.0268 388.517H41.9337C41.0687 388.517 40.3677 387.815 40.3677 386.951C40.3677 386.086 41.0687 385.385 41.9337 385.385H54.0268C54.8918 385.385 55.5928 386.086 55.5928 386.951C55.5928 387.815 54.8918 388.517 54.0268 388.517Z" fill="#283035"/>
<path d="M275.986 175.275C277.094 168.446 272.456 162.01 265.626 160.902C258.797 159.794 252.362 164.432 251.253 171.261C250.145 178.091 254.783 184.526 261.612 185.635C268.442 186.743 274.877 182.105 275.986 175.275Z" fill="white"/>
<path d="M227.65 176.098C225.162 176.09 223.151 174.066 223.159 171.577C223.16 171.397 223.171 171.217 223.193 171.039C225.628 150.363 242.796 134.338 263.614 134.338C284.431 134.338 301.599 150.363 304.034 171.039C304.34 173.508 302.586 175.758 300.116 176.064C299.937 176.087 299.756 176.097 299.576 176.098H227.65Z" fill="#F7B66F"/>
<path d="M269.878 134.831C269.743 134.809 269.607 134.794 269.472 134.774C268.997 134.704 268.52 134.641 268.04 134.588C267.822 134.564 267.603 134.544 267.384 134.523C266.986 134.485 266.588 134.451 266.189 134.428C265.957 134.415 265.727 134.398 265.495 134.387C264.871 134.357 264.242 134.338 263.616 134.338C262.989 134.338 262.363 134.357 261.743 134.387C261.456 134.4 261.172 134.423 260.887 134.442C260.579 134.463 260.271 134.485 259.964 134.514C259.589 134.548 259.215 134.589 258.842 134.633C258.66 134.655 258.477 134.68 258.297 134.704C239.493 137.222 224.718 152.889 223.056 172.418C222.891 174.279 224.266 175.92 226.126 176.085C226.223 176.093 226.32 176.098 226.418 176.098H300.812C302.671 176.103 304.182 174.601 304.188 172.742C304.189 172.652 304.185 172.563 304.178 172.473C302.566 153.245 288.248 137.74 269.878 134.831ZM237.004 164.577C240.609 151.48 250.409 140.985 263.229 136.493C276.061 140.976 285.874 151.473 289.483 164.577C290.293 167.572 288.521 170.657 285.526 171.466C285.042 171.597 284.543 171.663 284.042 171.661H242.446C239.344 171.672 236.82 169.166 236.809 166.063C236.807 165.561 236.873 165.061 237.004 164.577Z" fill="#EFAA65"/>
<path d="M227.685 177.664C227.683 177.664 227.682 177.664 227.681 177.664C226.05 177.659 224.52 177.021 223.371 175.865C222.222 174.709 221.591 173.175 221.596 171.545C221.596 171.301 221.612 171.054 221.642 170.811C224.215 149.129 242.259 132.772 263.614 132.772C284.969 132.772 303.013 149.129 305.584 170.82C305.784 172.428 305.343 174.027 304.341 175.312C303.339 176.598 301.897 177.417 300.279 177.618C300.037 177.648 299.79 177.663 299.545 177.664H227.685ZM227.685 174.532H299.54C299.656 174.532 299.775 174.524 299.894 174.51C300.681 174.411 301.383 174.013 301.871 173.388C302.358 172.762 302.573 171.984 302.475 171.197C300.089 151.073 283.383 135.904 263.614 135.904C243.845 135.904 227.138 151.073 224.751 171.189C224.735 171.315 224.728 171.434 224.727 171.554C224.725 172.347 225.032 173.094 225.591 173.657C226.15 174.218 226.894 174.529 227.686 174.532H227.685V174.532Z" fill="#283035"/>
<path d="M265.179 67H262.047V134.338H265.179V67Z" fill="#283035"/>
<defs>
<linearGradient id="paint0_linear" x1="263.614" y1="120.646" x2="263.614" y2="394.425" gradientUnits="userSpaceOnUse">
<stop stop-color="white"/>
<stop offset="0.093" stop-color="white" stop-opacity="0.864"/>
<stop offset="0.284" stop-color="white" stop-opacity="0.605"/>
<stop offset="0.466" stop-color="white" stop-opacity="0.389"/>
<stop offset="0.633" stop-color="white" stop-opacity="0.221"/>
<stop offset="0.784" stop-color="white" stop-opacity="0.1"/>
<stop offset="0.911" stop-color="white" stop-opacity="0.026"/>
<stop offset="1" stop-color="white" stop-opacity="0"/>
</linearGradient>
</defs>
</svg>
