<svg width="89" height="89" viewBox="0 0 89 89" fill="none" xmlns="http://www.w3.org/2000/svg">
<path d="M32.2031 89C18.9572 88.9237 8.00049 61.8844 8.00049 48.1139C8.00049 25.6198 24.8749 20.6953 31.3781 20.6953C34.3089 20.6953 37.4383 21.8462 40.1985 22.8646C42.1287 23.5751 44.1249 24.3084 45.2352 24.3084C45.8997 24.3084 47.4657 23.6846 48.8484 23.1372C51.797 21.9633 55.4662 20.5044 59.7389 20.5044C59.7465 20.5044 59.7568 20.5044 59.7642 20.5044C62.9547 20.5044 72.6282 21.2046 78.444 29.9384L79.8063 31.9856L77.8457 33.465C75.0448 35.5784 69.9342 39.4336 69.9342 47.07C69.9342 56.1145 75.722 59.5928 78.5026 61.2657C79.73 62.0041 81.0005 62.7655 81.0005 64.4308C81.0005 65.518 72.3226 88.8651 59.721 88.8651C56.6374 88.8651 54.4578 87.9382 52.5352 87.1209C50.5899 86.2933 48.9118 85.5804 46.1389 85.5804C44.7333 85.5804 42.9559 86.245 41.0742 86.9504C38.5028 87.9101 35.5922 89 32.2897 89H32.2031Z" fill="black"/>
<path d="M61.0738 0C61.402 11.8335 52.9392 20.0431 44.4863 19.5282C43.0934 10.0846 52.9381 0 61.0738 0Z" fill="black"/>
</svg>
