<svg width="442" height="163" viewBox="0 0 442 163" fill="none" xmlns="http://www.w3.org/2000/svg">
<path d="M87.3263 101.088V6.33332C87.3263 4.99367 86.7947 3.70878 85.8482 2.76074C84.9017 1.8127 83.6177 1.27902 82.278 1.27686C80.9383 1.27686 79.6534 1.80846 78.7054 2.75498C77.7574 3.70149 77.2237 4.98552 77.2215 6.32517V95.9904C77.2222 96.7823 77.0368 97.5632 76.6804 98.2704C76.324 98.9775 75.8065 99.5911 75.1696 100.062L60.3584 110.981C60.1711 111.12 59.9493 111.206 59.7169 111.229C59.4846 111.252 59.2503 111.211 59.0393 111.111L7.18792 86.9359C6.58658 86.6544 5.93562 86.4943 5.27231 86.4647C4.609 86.4352 3.94637 86.5368 3.32238 86.7637C2.69839 86.9906 2.12529 87.3383 1.6359 87.787C1.1465 88.2358 0.750431 88.7766 0.470364 89.3786V89.3786C-0.0933582 90.5926 -0.152785 91.9805 0.305109 93.2382C0.763004 94.4959 1.70086 95.5207 2.91311 96.0881L49.6103 117.853L58.0459 121.753C58.9279 122.162 59.904 122.326 60.8712 122.227C61.8385 122.128 62.7612 121.771 63.5421 121.191L70.1864 116.306L70.5447 116.037L85.2663 105.167C85.9058 104.696 86.4256 104.082 86.7835 103.373C87.1414 102.665 87.3273 101.881 87.3263 101.088V101.088Z" fill="#231F20"/>
<path d="M96.8854 101.088L96.8447 6.33332C96.8447 4.99367 97.3763 3.70878 98.3229 2.76074C99.2694 1.8127 100.553 1.27902 101.893 1.27686V1.27686C103.233 1.27686 104.518 1.80846 105.466 2.75498C106.414 3.70149 106.947 4.98552 106.95 6.32517V95.9904C106.949 96.7823 107.134 97.5632 107.491 98.2704C107.847 98.9775 108.365 99.5911 109.001 100.062L123.87 110.981C124.057 111.12 124.279 111.206 124.511 111.229C124.744 111.252 124.978 111.211 125.189 111.111L177.056 86.9359C177.658 86.6544 178.309 86.4943 178.972 86.4647C179.635 86.4352 180.298 86.5368 180.922 86.7637C181.546 86.9906 182.119 87.3383 182.608 87.787C183.098 88.2358 183.494 88.7766 183.774 89.3786V89.3786C184.338 90.5926 184.397 91.9805 183.939 93.2382C183.481 94.4959 182.544 95.5207 181.331 96.0881L134.642 117.853L126.207 121.753C125.325 122.162 124.349 122.326 123.381 122.227C122.414 122.128 121.491 121.771 120.71 121.191L114.066 116.306L113.708 116.037L98.9862 105.167C98.3392 104.701 97.8116 104.088 97.4465 103.379C97.0814 102.67 96.8891 101.885 96.8854 101.088V101.088Z" fill="#231F20"/>
<path d="M12.7738 86.0647L53.9178 105.33C55.0608 105.865 56.3272 106.081 57.583 105.955C58.8387 105.829 60.0369 105.365 61.0506 104.613L71.701 96.7476C72.5841 96.0972 73.3021 95.2484 73.7971 94.2697C74.2921 93.291 74.5503 92.2098 74.5509 91.113V9.19952C74.5515 8.58082 74.3627 7.97677 74.0098 7.46859C73.6569 6.96042 73.1568 6.57249 72.5769 6.357C71.9969 6.14151 71.3649 6.10878 70.7657 6.26322C70.1666 6.41766 69.6292 6.75188 69.2257 7.2209L10.445 75.1374C9.73471 75.9553 9.22407 76.927 8.95337 77.9759C8.68266 79.0247 8.65928 80.1222 8.88507 81.1816C9.11086 82.2411 9.57964 83.2337 10.2545 84.081C10.9293 84.9284 11.7917 85.6075 12.7738 86.0647V86.0647Z" fill="#9F9E9F"/>
<path d="M171.438 86.0647L130.294 105.33C129.15 105.865 127.882 106.081 126.625 105.955C125.368 105.828 124.169 105.365 123.153 104.613L112.511 96.7476C111.628 96.0972 110.91 95.2484 110.415 94.2697C109.92 93.291 109.662 92.2098 109.661 91.113V9.19952C109.66 8.58082 109.849 7.97677 110.202 7.46859C110.555 6.96042 111.055 6.57249 111.635 6.357C112.215 6.14151 112.847 6.10878 113.446 6.26322C114.045 6.41766 114.583 6.75188 114.986 7.2209L173.767 75.1374C174.476 75.956 174.985 76.9277 175.255 77.9763C175.524 79.0248 175.547 80.1216 175.322 81.1805C175.096 82.2394 174.628 83.2316 173.954 84.0791C173.28 84.9265 172.419 85.6062 171.438 86.0647V86.0647Z" fill="#9F9E9F"/>
<path d="M129.952 149.959L95.371 124.513C95.1387 124.342 94.9499 124.119 94.8198 123.862C94.6897 123.604 94.6219 123.32 94.6219 123.032V2.41679C94.6241 2.04458 94.4788 1.68666 94.2179 1.42119C93.9571 1.15572 93.6017 1.0043 93.2295 1H90.9741C90.7894 1.00106 90.6069 1.0386 90.4368 1.11048C90.2668 1.18236 90.1126 1.28718 89.9832 1.41885C89.8538 1.55052 89.7517 1.70644 89.6828 1.87771C89.6139 2.04898 89.5795 2.23219 89.5817 2.41679V123.015C89.5817 123.309 89.5124 123.598 89.3794 123.86C89.2464 124.122 89.0535 124.349 88.8163 124.522L54.2514 149.959C53.8789 150.229 53.564 150.57 53.325 150.963C53.086 151.356 52.9278 151.793 52.8596 152.248C52.7913 152.703 52.8145 153.167 52.9276 153.612C53.0408 154.058 53.2417 154.477 53.5186 154.844L55.3914 157.393C55.6613 157.765 56.0026 158.08 56.3953 158.319C56.7881 158.558 57.2244 158.717 57.679 158.786C58.1336 158.855 58.5974 158.833 59.0434 158.721C59.4894 158.609 59.9087 158.409 60.2768 158.134L90.0784 136.206C90.6714 135.779 91.3834 135.55 92.114 135.55C92.8446 135.55 93.5566 135.779 94.1496 136.206L123.959 158.134C124.327 158.409 124.747 158.609 125.193 158.721C125.639 158.833 126.102 158.855 126.557 158.786C127.012 158.717 127.448 158.558 127.841 158.319C128.234 158.08 128.575 157.765 128.845 157.393L130.718 154.844C130.993 154.475 131.192 154.054 131.302 153.607C131.413 153.16 131.433 152.696 131.362 152.241C131.29 151.786 131.129 151.349 130.887 150.958C130.645 150.566 130.327 150.226 129.952 149.959V149.959Z" fill="white" stroke="#231F20" stroke-width="2" stroke-miterlimit="10"/>
<path d="M153.94 150.114L94.9717 106.584C93.9621 105.843 90.2491 105.843 89.272 106.584L30.2715 150.114C29.4327 150.737 28.8757 151.667 28.723 152.701C28.5703 153.735 28.8344 154.787 29.4572 155.626L30.7763 157.409C31.3994 158.248 32.3302 158.805 33.3639 158.958C34.3977 159.11 35.4497 158.846 36.2888 158.223L89.7768 118.74C90.4565 118.24 91.2781 117.971 92.1218 117.971C92.9656 117.971 93.7873 118.24 94.4669 118.74L147.955 158.223C148.794 158.846 149.846 159.11 150.88 158.958C151.913 158.805 152.844 158.248 153.467 157.409L154.786 155.626C155.093 155.209 155.315 154.735 155.438 154.232C155.561 153.729 155.584 153.206 155.506 152.694C155.427 152.182 155.248 151.691 154.98 151.248C154.711 150.805 154.358 150.42 153.94 150.114Z" fill="#231F20"/>
<path d="M247.559 1.56828H254.371L267.963 58.4718H258.336L250.949 21.1845L243.562 58.4718H234L247.559 1.56828ZM243.217 40.5381H258.713V49.6158H243.234L243.217 40.5381Z" fill="#231F20"/>
<path d="M281.965 25.592L289.089 1.56828H299.653L286.619 33.578L278.838 58.4718H268.275L281.965 25.592ZM282.433 35.9172L280.636 31.6164L268.743 1.56828H279.306L285.601 22.309L287.719 27.5044L300.506 58.4718H289.943L282.433 35.9172Z" fill="#231F20"/>
<path d="M314.402 1.56828H321.206L334.782 58.4718H325.154L317.767 21.1845L310.38 58.4718H300.827L314.402 1.56828ZM310.06 40.5381H325.532V49.6158H310.06V40.5381Z" fill="#231F20"/>
<path d="M342.176 57.3391C340.148 56.217 338.515 54.4975 337.498 52.4145C336.348 49.9709 335.786 47.2923 335.856 44.5927V15.4556C335.787 12.7561 336.349 10.0776 337.498 7.63373C338.515 5.55072 340.148 3.83129 342.176 2.70915C344.476 1.58458 347.003 1 349.563 1C352.123 1 354.65 1.58458 356.95 2.70915C358.988 3.83515 360.621 5.57183 361.62 7.67476C362.764 10.1289 363.326 12.8142 363.262 15.5212V20.1011H353.413V15.5212C353.429 14.6807 353.284 13.8448 352.986 13.059C352.734 12.3859 352.274 11.8108 351.673 11.4174C351.045 11.0276 350.318 10.8307 349.58 10.8511C348.862 10.8323 348.155 11.0234 347.544 11.4011C346.951 11.7837 346.495 12.3438 346.239 13.0015C345.92 13.7967 345.767 14.6484 345.788 15.5049V44.6173C345.767 45.4604 345.921 46.2986 346.239 47.0796C346.498 47.7312 346.954 48.2852 347.544 48.6636C348.155 49.0413 348.862 49.2324 349.58 49.2135C350.324 49.2399 351.06 49.0488 351.697 48.6636C352.284 48.286 352.736 47.7312 352.986 47.0796C353.292 46.2757 353.437 45.4196 353.413 44.5598V39.98H363.262V44.5188C363.326 47.2258 362.764 49.9111 361.62 52.3653C360.614 54.453 358.982 56.1746 356.95 57.2899C354.65 58.4144 352.123 58.999 349.563 58.999C347.003 58.999 344.476 58.4144 342.176 57.2899V57.3391Z" fill="#231F20"/>
<path d="M365.454 1.56828H393.934V10.8675H365.454V1.56828ZM374.843 6.34513H384.545V58.4718H374.843V6.34513Z" fill="#231F20"/>
<path d="M242.568 133.744C240.471 132.685 238.752 131.006 237.644 128.934C236.452 126.591 235.865 123.987 235.936 121.359V118.314L245.605 118.231V121.285C245.57 121.901 245.659 122.518 245.868 123.099C246.076 123.68 246.4 124.213 246.82 124.666C247.265 125.09 247.793 125.419 248.37 125.63C248.948 125.842 249.563 125.933 250.177 125.897C250.779 125.936 251.382 125.848 251.947 125.639C252.513 125.43 253.028 125.104 253.46 124.683C254.254 123.779 254.666 122.602 254.609 121.4V116.475C254.629 115.497 254.32 114.54 253.731 113.758C253.106 112.956 252.334 112.279 251.457 111.764C250.538 111.198 249.274 110.524 247.682 109.745L247.394 109.589L247.099 109.433L246.59 109.195C244.687 108.257 242.879 107.138 241.189 105.854C239.634 104.607 238.366 103.039 237.471 101.258C236.42 99.0635 235.91 96.6484 235.986 94.216V91.2776C235.907 88.6958 236.471 86.135 237.627 83.8251C238.707 81.7807 240.393 80.1206 242.453 79.0729C244.83 77.9222 247.447 77.3592 250.086 77.4313C252.673 77.3627 255.236 77.9262 257.555 79.0729C259.612 80.1289 261.283 81.8061 262.332 83.8662C263.486 86.2178 264.05 88.8152 263.974 91.4336V94.5853L254.313 94.7002V91.4172C254.387 90.1763 253.988 88.9537 253.197 87.9946C252.799 87.5764 252.314 87.2497 251.777 87.0371C251.24 86.8246 250.663 86.7312 250.086 86.7634C249.493 86.7232 248.898 86.8004 248.335 86.9905C247.771 87.1807 247.251 87.48 246.803 87.8715C246.409 88.277 246.102 88.7598 245.903 89.2894C245.704 89.8191 245.616 90.3842 245.646 90.9493V94.7413C245.614 95.7302 245.902 96.7032 246.467 97.5154C247.033 98.3073 247.75 98.9795 248.576 99.4935C249.397 100.027 250.604 100.675 252.122 101.43C252.409 101.562 252.696 101.701 253 101.857C253.304 102.013 253.608 102.177 253.919 102.333L254.059 102.407L254.19 102.489C256.012 103.425 257.764 104.49 259.435 105.674C260.864 106.769 262.028 108.171 262.841 109.778C263.853 111.902 264.334 114.239 264.245 116.59V121.318C264.324 123.939 263.761 126.54 262.603 128.893C261.525 130.956 259.837 132.636 257.769 133.703C255.409 134.859 252.803 135.423 250.177 135.344C247.549 135.425 244.94 134.877 242.568 133.744V133.744Z" fill="#231F20"/>
<path d="M267.373 77.9321H295.853V87.2477H267.373V77.9321ZM276.762 82.7089H286.463V134.803H276.762V82.7089Z" fill="#231F20"/>
<path d="M304.561 133.703C302.526 132.589 300.891 130.867 299.883 128.778C298.758 126.36 298.21 123.713 298.282 121.047V77.9321H308.025V121.326C307.953 122.49 308.316 123.639 309.042 124.551C309.397 124.94 309.833 125.245 310.32 125.444C310.807 125.643 311.332 125.73 311.858 125.7C312.391 125.731 312.925 125.644 313.422 125.445C313.918 125.247 314.365 124.941 314.73 124.551C315.469 123.644 315.841 122.493 315.773 121.326V77.9321H325.531V121.047C325.594 123.717 325.032 126.364 323.89 128.778C322.868 130.863 321.229 132.583 319.195 133.703C316.92 134.826 314.416 135.411 311.878 135.411C309.34 135.411 306.837 134.826 304.561 133.703V133.703Z" fill="#231F20"/>
<path d="M331.063 77.9321H340.764V134.803H331.063V77.9321ZM337.522 125.536H344.794C345.354 125.571 345.914 125.482 346.435 125.274C346.955 125.067 347.424 124.747 347.807 124.338C348.562 123.395 348.939 122.204 348.865 120.997V91.7865C348.941 90.5775 348.563 89.3838 347.807 88.4378C347.423 88.0298 346.954 87.7115 346.434 87.5058C345.913 87.3001 345.353 87.2119 344.794 87.2477H337.522V77.9321H345.779C348.187 77.8673 350.575 78.3854 352.739 79.4422C354.634 80.4078 356.18 81.9398 357.163 83.8251C358.23 85.9515 358.754 88.3086 358.69 90.6867V122.064C358.753 124.445 358.229 126.805 357.163 128.934C356.171 130.818 354.62 132.349 352.723 133.317C350.548 134.369 348.153 134.884 345.738 134.819H337.531L337.522 125.536Z" fill="#231F20"/>
<path d="M373.784 134.803H364.107V77.9321H373.809L373.784 134.803Z" fill="#231F20"/>
<path d="M386.679 133.818C384.585 132.842 382.843 131.246 381.688 129.246C380.491 127.031 379.9 124.54 379.973 122.023V90.7277C379.903 88.2063 380.494 85.7105 381.688 83.4886C382.84 81.4843 384.583 79.8849 386.679 78.9088C391.703 76.8294 397.347 76.8294 402.371 78.9088C404.465 79.8853 406.205 81.4849 407.354 83.4886C408.554 85.7083 409.149 88.2052 409.077 90.7277V122.023C409.152 124.541 408.557 127.033 407.354 129.246C406.202 131.246 404.462 132.842 402.371 133.818C399.889 134.868 397.221 135.41 394.525 135.41C391.829 135.41 389.161 134.868 386.679 133.818V133.818ZM397.086 125.118C397.794 124.74 398.368 124.152 398.727 123.435C399.113 122.603 399.301 121.693 399.277 120.776V91.9014C399.299 90.9979 399.111 90.1017 398.727 89.2832C398.363 88.5795 397.789 88.006 397.086 87.6416C396.296 87.2298 395.415 87.0265 394.525 87.0507C393.64 87.0252 392.764 87.2288 391.981 87.6416C391.29 88.0101 390.731 88.5836 390.38 89.2832C389.993 90.1005 389.805 90.9976 389.83 91.9014V120.776C389.802 121.693 389.991 122.604 390.38 123.435C390.735 124.153 391.306 124.742 392.013 125.118C392.797 125.528 393.674 125.728 394.558 125.7C395.436 125.722 396.306 125.522 397.086 125.118Z" fill="#231F20"/>
<path d="M420.305 133.744C418.208 132.685 416.488 131.006 415.38 128.934C414.191 126.59 413.607 123.986 413.681 121.359V118.314L423.341 118.231V121.285C423.306 121.901 423.395 122.518 423.604 123.099C423.813 123.68 424.137 124.213 424.556 124.666C425.003 125.091 425.532 125.42 426.111 125.631C426.69 125.843 427.306 125.934 427.921 125.897C428.523 125.937 429.127 125.849 429.692 125.64C430.258 125.431 430.773 125.104 431.204 124.683C431.999 123.779 432.411 122.602 432.353 121.4V116.475C432.374 115.497 432.065 114.54 431.475 113.758C430.85 112.956 430.079 112.279 429.202 111.764C428.282 111.198 427.018 110.524 425.426 109.745L425.139 109.589L424.843 109.359L424.335 109.121C422.432 108.183 420.623 107.064 418.934 105.781C417.379 104.533 416.111 102.965 415.216 101.184C414.164 98.9896 413.655 96.5746 413.73 94.1421V91.2038C413.652 88.622 414.216 86.0611 415.372 83.7512C416.452 81.7046 418.141 80.0441 420.206 78.999C422.579 77.8472 425.194 77.2842 427.831 77.3575C430.417 77.2888 432.981 77.8523 435.3 78.999C437.356 80.055 439.028 81.7322 440.077 83.7923C441.227 86.1453 441.79 88.7417 441.718 91.3597V94.5853L432.058 94.7002V91.4172C432.131 90.1763 431.732 88.9537 430.942 87.9946C430.543 87.5764 430.059 87.2497 429.522 87.0371C428.985 86.8246 428.408 86.7312 427.831 86.7634C427.238 86.7232 426.642 86.8004 426.079 86.9905C425.516 87.1807 424.995 87.48 424.548 87.8715C424.153 88.277 423.847 88.7598 423.648 89.2894C423.448 89.8191 423.361 90.3842 423.391 90.9493V94.7413C423.363 95.7297 423.65 96.7014 424.211 97.5154C424.777 98.3073 425.494 98.9795 426.321 99.4935C427.142 100.027 428.348 100.675 429.866 101.43C430.154 101.562 430.441 101.701 430.745 101.857C431.048 102.013 431.352 102.177 431.664 102.333L431.803 102.407L431.935 102.489C433.756 103.426 435.509 104.49 437.179 105.674C438.609 106.769 439.773 108.171 440.586 109.778C441.597 111.902 442.079 114.239 441.989 116.59V121.318C442.069 123.939 441.505 126.54 440.348 128.893C439.27 130.956 437.582 132.636 435.513 133.703C433.154 134.859 430.548 135.423 427.921 135.344C425.291 135.427 422.679 134.878 420.305 133.744V133.744Z" fill="#231F20"/>
<path d="M234.938 147.727V159H239.242C242.625 159 244.617 156.898 244.617 153.32C244.617 149.742 242.625 147.727 239.242 147.727H234.938ZM237.297 149.672H238.961C241.039 149.672 242.211 150.969 242.211 153.328C242.211 155.766 241.07 157.047 238.961 157.047H237.297V149.672ZM251.812 156.438C251.601 157.078 250.961 157.492 250.125 157.492C248.961 157.492 248.203 156.672 248.203 155.477V155.336H253.976V154.641C253.976 152.094 252.437 150.445 250 150.445C247.523 150.445 245.961 152.18 245.961 154.852C245.961 157.531 247.507 159.18 250.086 159.18C252.156 159.18 253.656 158.078 253.906 156.438H251.812ZM250.023 152.133C251.039 152.133 251.734 152.867 251.781 153.938H248.226C248.304 152.891 249.023 152.133 250.023 152.133ZM255.335 153.086C255.335 154.344 256.156 155.156 257.773 155.5L259.202 155.797C260.023 155.984 260.312 156.234 260.312 156.68C260.312 157.227 259.781 157.578 258.921 157.578C258.015 157.578 257.492 157.188 257.351 156.453H255.124C255.273 158.102 256.609 159.18 258.921 159.18C261.077 159.18 262.585 158.094 262.585 156.445C262.585 155.219 261.867 154.531 260.117 154.164L258.687 153.859C257.843 153.68 257.531 153.391 257.531 152.961C257.531 152.406 258.054 152.047 258.843 152.047C259.687 152.047 260.195 152.508 260.265 153.188H262.367C262.32 151.547 260.992 150.445 258.843 150.445C256.71 150.445 255.335 151.492 255.335 153.086ZM265.202 149.492C265.866 149.492 266.39 148.961 266.39 148.32C266.39 147.672 265.866 147.148 265.202 147.148C264.538 147.148 264.015 147.672 264.015 148.32C264.015 148.961 264.538 149.492 265.202 149.492ZM264.069 159H266.351V150.625H264.069V159ZM272.022 162.156C274.53 162.156 276.202 160.875 276.202 158.883V150.625H273.952V152.086H273.913C273.475 151.125 272.53 150.492 271.327 150.492C269.202 150.492 267.889 152.125 267.889 154.781C267.889 157.398 269.241 158.977 271.288 158.977C272.499 158.977 273.483 158.367 273.874 157.477H273.921V158.945C273.921 159.914 273.264 160.562 272.085 160.562C271.217 160.562 270.561 160.172 270.382 159.594H268.147C268.327 161.086 269.819 162.156 272.022 162.156ZM272.061 157.219C270.928 157.219 270.225 156.328 270.225 154.797C270.225 153.273 270.936 152.32 272.061 152.32C273.202 152.32 273.928 153.289 273.928 154.797C273.928 156.312 273.202 157.219 272.061 157.219ZM278.014 159H280.295V154.195C280.295 153.109 280.944 152.359 281.967 152.359C282.991 152.359 283.506 152.984 283.506 154.078V159H285.787V153.602C285.787 151.641 284.741 150.469 282.881 150.469C281.592 150.469 280.709 151.078 280.264 152.117H280.217V150.625H278.014V159ZM292.529 159.094C293.224 159.094 293.787 158.531 293.787 157.836C293.787 157.133 293.224 156.578 292.529 156.578C291.826 156.578 291.271 157.133 291.271 157.836C291.271 158.531 291.826 159.094 292.529 159.094ZM303.552 159.188C306.318 159.188 308.247 157.602 308.513 155.086H306.216C305.966 156.422 304.958 157.242 303.56 157.242C301.755 157.242 300.622 155.758 300.622 153.352C300.622 150.977 301.771 149.484 303.552 149.484C304.927 149.484 305.989 150.391 306.208 151.773H308.505C308.325 149.25 306.263 147.531 303.552 147.531C300.286 147.531 298.216 149.727 298.216 153.359C298.216 157 300.271 159.188 303.552 159.188ZM313.942 159.18C316.473 159.18 318.091 157.562 318.091 154.805C318.091 152.086 316.45 150.445 313.942 150.445C311.434 150.445 309.794 152.094 309.794 154.805C309.794 157.555 311.411 159.18 313.942 159.18ZM313.942 157.438C312.817 157.438 312.106 156.492 312.106 154.812C312.106 153.148 312.833 152.188 313.942 152.188C315.052 152.188 315.77 153.148 315.77 154.812C315.77 156.492 315.059 157.438 313.942 157.438ZM322.7 159.133C323.934 159.133 324.903 158.484 325.309 157.562H325.348V159H327.598V147.727H325.317V152.062H325.27C324.864 151.133 323.926 150.492 322.715 150.492C320.614 150.492 319.286 152.141 319.286 154.797C319.286 157.477 320.606 159.133 322.7 159.133ZM323.473 152.32C324.606 152.32 325.332 153.289 325.332 154.812C325.332 156.344 324.606 157.297 323.473 157.297C322.325 157.297 321.622 156.352 321.622 154.812C321.622 153.281 322.325 152.32 323.473 152.32ZM334.988 156.438C334.777 157.078 334.137 157.492 333.301 157.492C332.137 157.492 331.379 156.672 331.379 155.477V155.336H337.152V154.641C337.152 152.094 335.613 150.445 333.176 150.445C330.699 150.445 329.137 152.18 329.137 154.852C329.137 157.531 330.684 159.18 333.262 159.18C335.332 159.18 336.832 158.078 337.082 156.438H334.988ZM333.199 152.133C334.215 152.133 334.91 152.867 334.957 153.938H331.402C331.481 152.891 332.199 152.133 333.199 152.133ZM340.137 159.094C340.832 159.094 341.394 158.531 341.394 157.836C341.394 157.133 340.832 156.578 340.137 156.578C339.433 156.578 338.879 157.133 338.879 157.836C338.879 158.531 339.433 159.094 340.137 159.094ZM351.159 159.188C353.925 159.188 355.855 157.602 356.12 155.086H353.823C353.573 156.422 352.566 157.242 351.167 157.242C349.363 157.242 348.23 155.758 348.23 153.352C348.23 150.977 349.378 149.484 351.159 149.484C352.534 149.484 353.597 150.391 353.816 151.773H356.113C355.933 149.25 353.87 147.531 351.159 147.531C347.894 147.531 345.823 149.727 345.823 153.359C345.823 157 347.878 159.188 351.159 159.188ZM357.706 159H359.987V154.32C359.987 153.141 360.643 152.453 361.768 152.453C362.097 152.453 362.409 152.508 362.597 152.586V150.578C362.44 150.531 362.214 150.492 361.948 150.492C360.964 150.492 360.253 151.07 359.956 152.133H359.909V150.625H357.706V159ZM369.12 156.438C368.909 157.078 368.268 157.492 367.432 157.492C366.268 157.492 365.51 156.672 365.51 155.477V155.336H371.284V154.641C371.284 152.094 369.745 150.445 367.307 150.445C364.831 150.445 363.268 152.18 363.268 154.852C363.268 157.531 364.815 159.18 367.393 159.18C369.463 159.18 370.963 158.078 371.213 156.438H369.12ZM367.331 152.133C368.346 152.133 369.042 152.867 369.088 153.938H365.534C365.612 152.891 366.331 152.133 367.331 152.133ZM375.268 159.133C376.315 159.133 377.354 158.609 377.822 157.719H377.869V159H380.072V153.242C380.072 151.555 378.674 150.445 376.526 150.445C374.307 150.445 372.924 151.562 372.838 153.188H374.924C375.033 152.57 375.572 152.148 376.424 152.148C377.283 152.148 377.83 152.602 377.83 153.383V153.938L375.721 154.062C373.635 154.188 372.463 155.07 372.463 156.594C372.463 158.102 373.674 159.133 375.268 159.133ZM376.018 157.484C375.244 157.484 374.729 157.094 374.729 156.469C374.729 155.875 375.213 155.492 376.065 155.43L377.83 155.32V155.93C377.83 156.836 377.01 157.484 376.018 157.484ZM382.478 148.695V150.625H381.299V152.344H382.478V156.742C382.478 158.375 383.244 159.031 385.213 159.031C385.674 159.031 386.064 158.992 386.299 158.938V157.258C386.158 157.281 385.947 157.297 385.744 157.297C385.072 157.297 384.76 156.992 384.76 156.352V152.344H386.307V150.625H384.76V148.695H382.478ZM393.298 156.438C393.087 157.078 392.447 157.492 391.611 157.492C390.447 157.492 389.689 156.672 389.689 155.477V155.336H395.462V154.641C395.462 152.094 393.923 150.445 391.486 150.445C389.009 150.445 387.447 152.18 387.447 154.852C387.447 157.531 388.994 159.18 391.572 159.18C393.642 159.18 395.142 158.078 395.392 156.438H393.298ZM391.509 152.133C392.525 152.133 393.22 152.867 393.267 153.938H389.712C389.791 152.891 390.509 152.133 391.509 152.133Z" fill="#231F20"/>
</svg>
