<svg width="122" height="122" viewBox="0 0 122 122" fill="none" xmlns="http://www.w3.org/2000/svg">
<path d="M108.918 18.2081H12.7781C11.7692 18.2081 10.9526 19.0259 10.9526 20.0336V79.8945C10.9526 80.9021 11.7692 81.7199 12.7781 81.7199H47.1364L45.4266 99.6737C45.4217 99.7285 45.4278 99.782 45.4278 99.8368H36.3603C35.3514 99.8368 34.5348 100.655 34.5348 101.662C34.5348 102.67 35.3514 103.488 36.3603 103.488H87.1512C88.1601 103.488 88.9767 102.67 88.9767 101.662C88.9767 100.655 88.1601 99.8368 87.1512 99.8368H77.1758C77.1758 99.782 77.1819 99.7297 77.177 99.6737L75.4672 81.7199H108.918C109.927 81.7199 110.743 80.9021 110.743 79.8945V20.0336C110.743 19.0259 109.925 18.2081 108.918 18.2081ZM73.5237 99.8368H49.0775L50.8031 81.7199H71.7993L73.5237 99.8368ZM107.092 78.0703H14.6035V21.8602H107.092V78.0703Z" fill="white"/>
</svg>
