<svg width="45" height="45" viewBox="0 0 45 45" fill="none" xmlns="http://www.w3.org/2000/svg">
<path d="M31.8164 0H13.1836C5.91416 0 0 5.91416 0 13.1836V31.8164C0 39.0858 5.91416 45 13.1836 45H31.8164C39.0858 45 45 39.0858 45 31.8164V13.1836C45 5.91416 39.0858 0 31.8164 0ZM43.2422 31.8164C43.2422 38.1166 38.1166 43.2422 31.8164 43.2422H13.1836C6.88342 43.2422 1.75781 38.1166 1.75781 31.8164V13.1836C1.75781 6.88342 6.88342 1.75781 13.1836 1.75781H31.8164C38.1166 1.75781 43.2422 6.88342 43.2422 13.1836V31.8164Z" fill="white"/>
<path d="M31.8164 3.86719H13.1836C8.04647 3.86719 3.86719 8.04647 3.86719 13.1836V31.8164C3.86719 36.9535 8.04647 41.1328 13.1836 41.1328H18.5449C19.0303 41.1328 19.4238 40.7393 19.4238 40.2539C19.4238 39.7685 19.0303 39.375 18.5449 39.375H13.1836C9.01582 39.375 5.625 35.9842 5.625 31.8164V13.1836C5.625 9.01582 9.01582 5.625 13.1836 5.625H31.8164C35.9842 5.625 39.375 9.01582 39.375 13.1836V31.8164C39.375 35.9842 35.9842 39.375 31.8164 39.375H26.5137C26.0283 39.375 25.6348 39.7685 25.6348 40.2539C25.6348 40.7393 26.0283 41.1328 26.5137 41.1328H31.8164C36.9535 41.1328 41.1328 36.9535 41.1328 31.8164V13.1836C41.1328 8.04647 36.9535 3.86719 31.8164 3.86719Z" fill="white"/>
<path d="M23.1214 39.6325C22.9579 39.469 22.7312 39.375 22.5 39.375C22.2688 39.375 22.0421 39.469 21.8786 39.6325C21.7151 39.796 21.6211 40.0228 21.6211 40.2539C21.6211 40.4851 21.7151 40.7118 21.8786 40.8753C22.0421 41.0388 22.2688 41.1328 22.5 41.1328C22.7312 41.1328 22.9579 41.0388 23.1214 40.8753C23.2849 40.7118 23.3789 40.4851 23.3789 40.2539C23.3789 40.0228 23.2849 39.796 23.1214 39.6325Z" fill="white"/>
<path d="M15.454 13.6854C15.122 13.3312 14.5659 13.3131 14.2116 13.6449L14.1727 13.6816C13.8196 14.0147 13.8035 14.5709 14.1367 14.924C14.3096 15.1073 14.5426 15.1997 14.7761 15.1997C14.9925 15.1997 15.2093 15.1203 15.3791 14.96L15.4135 14.9278C15.7677 14.5959 15.7859 14.0396 15.454 13.6854Z" fill="white"/>
<path d="M22.5 10.3711C20.5696 10.3711 18.6483 10.8361 16.9438 11.7159C16.5125 11.9385 16.3433 12.4687 16.566 12.9001C16.7887 13.3313 17.3188 13.5004 17.7501 13.2779C19.2271 12.5154 20.8252 12.1289 22.5 12.1289C28.2186 12.1289 32.8711 16.7814 32.8711 22.5C32.8711 28.2186 28.2186 32.8711 22.5 32.8711C16.7814 32.8711 12.1289 28.2186 12.1289 22.5C12.1289 20.7054 12.5943 18.9372 13.4748 17.3867C13.7145 16.9646 13.5666 16.4282 13.1445 16.1884C12.7223 15.9488 12.1859 16.0966 11.9462 16.5187C10.9158 18.3333 10.3711 20.4016 10.3711 22.5C10.3711 29.1879 15.8121 34.6289 22.5 34.6289C29.1879 34.6289 34.6289 29.1879 34.6289 22.5C34.6289 15.8121 29.1879 10.3711 22.5 10.3711Z" fill="white"/>
<path d="M22.5 14.5898C18.1383 14.5898 14.5898 18.1383 14.5898 22.5C14.5898 26.8617 18.1383 30.4102 22.5 30.4102C26.8617 30.4102 30.4102 26.8617 30.4102 22.5C30.4102 18.1383 26.8617 14.5898 22.5 14.5898ZM22.5 28.6523C19.1076 28.6523 16.3477 25.8924 16.3477 22.5C16.3477 19.1076 19.1076 16.3477 22.5 16.3477C25.8924 16.3477 28.6523 19.1076 28.6523 22.5C28.6523 25.8924 25.8924 28.6523 22.5 28.6523Z" fill="white"/>
<path d="M34.0356 7.62451C32.1941 7.62451 30.6958 9.12278 30.6958 10.9644C30.6958 12.8059 32.1941 14.3042 34.0356 14.3042C35.8772 14.3042 37.3755 12.8059 37.3755 10.9644C37.3755 9.12278 35.8772 7.62451 34.0356 7.62451ZM34.0356 12.5464C33.1633 12.5464 32.4536 11.8367 32.4536 10.9644C32.4536 10.092 33.1633 9.38232 34.0356 9.38232C34.908 9.38232 35.6177 10.092 35.6177 10.9644C35.6177 11.8367 34.908 12.5464 34.0356 12.5464Z" fill="white"/>
</svg>
