<svg width="45" height="45" viewBox="0 0 45 45" fill="none" xmlns="http://www.w3.org/2000/svg">
<path d="M33.5742 43.2422H2.63672C2.15195 43.2422 1.75781 42.8481 1.75781 42.3633V2.63672C1.75781 2.15195 2.15195 1.75781 2.63672 1.75781H4.39453C4.87999 1.75781 5.27344 1.36436 5.27344 0.878906C5.27344 0.393448 4.87999 0 4.39453 0H2.63672C1.18275 0 0 1.18275 0 2.63672V42.3633C0 43.8173 1.18275 45 2.63672 45H33.5742C34.0593 45 34.4531 44.6066 34.4531 44.1211C34.4531 43.6356 34.0597 43.2422 33.5742 43.2422Z" fill="white"/>
<path d="M42.3633 0H11.4258C10.9403 0 10.5469 0.393448 10.5469 0.878906C10.5469 1.36436 10.9403 1.75781 11.4258 1.75781H42.3633C42.8481 1.75781 43.2422 2.15195 43.2422 2.63672V42.3633C43.2422 42.8481 42.8481 43.2422 42.3633 43.2422H40.6055C40.12 43.2422 39.7266 43.6356 39.7266 44.1211C39.7266 44.6066 40.12 45 40.6055 45H42.3633C43.8173 45 45 43.8169 45 42.3633V2.63672C45 1.18275 43.8173 0 42.3633 0Z" fill="white"/>
<path d="M10.8325 15.5347C13.3889 15.5347 15.4688 13.4548 15.4688 10.8984C15.4688 8.34171 13.3889 6.26221 10.8325 6.26221C8.27579 6.26221 6.19629 8.34206 6.19629 10.8984C6.19629 13.4548 8.27579 15.5347 10.8325 15.5347ZM10.8325 8.02002C12.4197 8.02002 13.7109 9.31126 13.7109 10.8984C13.7109 12.4856 12.4197 13.7769 10.8325 13.7769C9.24534 13.7769 7.9541 12.4856 7.9541 10.8984C7.9541 9.31126 9.24534 8.02002 10.8325 8.02002Z" fill="white"/>
<path d="M30.2563 15.9741C28.3138 15.9741 26.4389 16.6498 24.939 17.8439V17.2925C24.939 16.807 24.5452 16.4136 24.0601 16.4136H17.9297C17.4442 16.4136 17.0508 16.807 17.0508 17.2925V37.8589C17.0508 38.3443 17.4442 38.7378 17.9297 38.7378H24.3896C24.8748 38.7378 25.2686 38.3443 25.2686 37.8589V25.9882C25.2686 24.5222 26.4613 23.3295 27.9272 23.3295C29.3932 23.3295 30.5859 24.5222 30.5859 25.9882V37.8589C30.5859 38.3443 30.9794 38.7378 31.4648 38.7378H37.9248C38.4099 38.7378 38.8037 38.3443 38.8037 37.8589V24.5215C38.8037 19.8083 34.9691 15.9741 30.2563 15.9741ZM37.0459 36.98H32.3438V25.9882C32.3438 23.553 30.3624 21.5717 27.9272 21.5717C25.4917 21.5717 23.5107 23.553 23.5107 25.9882V36.98H18.8086V18.1714H23.1812V20.0181C23.1812 20.3985 23.4256 20.7357 23.7875 20.8538C24.1486 20.9715 24.5455 20.8435 24.7697 20.5362C26.0517 18.7804 28.1027 17.7319 30.2563 17.7319C33.9999 17.7319 37.0459 20.7775 37.0459 24.5215V36.98Z" fill="white"/>
<path d="M7.60254 16.4136C7.11708 16.4136 6.72363 16.807 6.72363 17.2925V37.8589C6.72363 38.3443 7.11708 38.7378 7.60254 38.7378H14.0625C14.5476 38.7378 14.9414 38.3443 14.9414 37.8589V17.2925C14.9414 16.807 14.5476 16.4136 14.0625 16.4136H7.60254ZM13.1836 36.98H8.48145V18.1714H13.1836V36.98Z" fill="white"/>
<path d="M7.9105 1.75781C8.39561 1.75781 8.78941 1.36436 8.78941 0.878906C8.78941 0.393448 8.39561 0 7.9105 0H7.90981C7.42435 0 7.03125 0.393448 7.03125 0.878906C7.03125 1.36436 7.42504 1.75781 7.9105 1.75781Z" fill="white"/>
<path d="M37.0902 43.2422H37.0895C36.604 43.2422 36.2109 43.6356 36.2109 44.1211C36.2109 44.6066 36.6047 45 37.0902 45C37.5756 45 37.9691 44.6066 37.9691 44.1211C37.9691 43.6356 37.5756 43.2422 37.0902 43.2422V43.2422Z" fill="white"/>
</svg>
